# Blender v2.65 (sub 0) OBJ File: ''
# www.blender.org
mtllib skybox.mtl
o cube
v -0.500000 0.500000 -0.500000
v -0.500000 0.500000 0.500000
v 0.500000 0.500000 0.500000
v 0.500000 0.500000 -0.500000
v -0.500000 -0.500000 -0.500000
v -0.500000 -0.500000 0.500000
v 0.500000 -0.500000 0.500000
v 0.500000 -0.500000 -0.500000
vt 0.250000 0.250000
vt 0.750000 0.750000
vt 0.250000 0.750000
vt 0.750000 0.250000
vn 0.000000 -1.000000 -0.000000
vn 1.000000 -0.000000 -0.000000
vn -1.000000 0.000000 0.000000
vn 0.000000 -0.000000 1.000000
vn 0.000000 0.000000 -1.000000
vn -0.000000 1.000000 0.000000
usemtl default
s off
f 1/1/1 3/2/1 2/3/1
f 1/1/1 4/4/1 3/2/1
f 1/4/2 6/3/2 5/1/2
f 1/4/2 2/2/2 6/3/2
f 3/2/3 8/1/3 7/3/3
f 3/2/3 4/4/3 8/1/3
f 4/2/4 5/1/4 8/4/4
f 4/2/4 1/3/4 5/1/4
f 2/3/5 7/4/5 6/1/5
f 2/3/5 3/2/5 7/4/5
f 6/3/6 8/4/6 5/1/6
f 6/3/6 7/2/6 8/4/6
